<svg width="490" height="408" viewBox="0 0 490 408" xmlns="http://www.w3.org/2000/svg" style="background:#f7f7f7"><path d="M276.05 355.75a1.5 1.5 0 0 0 0-3 1.5 1.5 0 0 0 0 3zm2.24-13.75v24.46l-12.72 4.03v-33.2L278.3 342zm7.48 28.76v-35.29h-20.81l-.88-.32v35.61h-4.5v1.5h4.5v.28l.86-.28h.63v-.2l14.22-4.5v-26.6l-10.77-3.99h15.25v35.3h5.99v-1.5h-4.49zM145.8 36.9l2.24-2.3.01.15c0 1.37-.19 2.69-.53 3.92l-1.72-1.77zm1.12 3.53l-2.3 2.37-2.28-2.34 2.42-2.48 2.22 2.29-.06.16zm-5.77 5.94l-2.27-2.34 2.41-2.49 2.28 2.34-2.42 2.49zm-3.2.78c-.65 0-1.28-.08-1.88-.22l1.76-1.82 1.8 1.85c-.55.12-1.11.19-1.69.19zm-5.85-3.27l2.27-2.34 2.42 2.49-2.28 2.34-2.41-2.49zm-2.95-3.03l-.31-.74 2.07-2.13 2.41 2.48-2.27 2.34-1.9-1.95zm-1.31-6.04l2.02 2.09-1.55 1.6a14.8 14.8 0 0 1-.47-3.69zm1.2-5.9l.82.86-1.65 1.7c.2-.9.47-1.75.82-2.56zm2.91-4.12l1.37 1.41-2.41 2.49-1.15-1.18a11.68 11.68 0 0 1 2.2-2.72zm4.68-2.32l.16.16-2.42 2.5-1.24-1.28a8.77 8.77 0 0 1 3.5-1.38zm2.44-.03c1.26.17 2.46.63 3.54 1.33l-1.32 1.35-2.41-2.49.19-.2zm6.97 4.93l-1.28 1.32-2.42-2.49 1.48-1.52c.85.75 1.6 1.66 2.22 2.69zm-3.7 5.96l2.42-2.49 2.41 2.5-2.41 2.48-2.42-2.49zm-3.46 3.57l2.41-2.49 2.42 2.49-2.42 2.49-2.41-2.5zm-1.05 1.08l2.42 2.48-2.42 2.5-2.41-2.5 2.41-2.48zm-3.46-3.57l2.42 2.49-2.42 2.49-2.42-2.5 2.42-2.48zm-1.05-1.08l-2.41 2.49-2.42-2.49 2.42-2.49 2.41 2.5zm3.47-3.56l-2.42 2.48-2.42-2.48 2.42-2.5 2.42 2.5zm3.46 3.56l-2.42 2.49-2.41-2.49 2.41-2.49 2.42 2.5zm-1.37-3.56l2.41-2.5 2.42 2.5-2.42 2.48-2.41-2.48zm-1.05-6.06l2.42 2.5-2.42 2.48-2.41-2.49 2.41-2.49zm9.9 8.05l-1.93-2 .98-1c.43.93.74 1.94.96 3zm-9.26-10.86a2.9 2.9 0 0 1 2.88-2.5c.42 0 .76-.33.76-.74a.75.75 0 0 0-.76-.74c-1.08 0-2.07.38-2.84 1.01a2.9 2.9 0 0 1 2.84-2.22c.42 0 .76-.33.76-.74a.75.75 0 0 0-.76-.75c-1.08 0-2.07.38-2.84 1.01a2.9 2.9 0 0 1 2.84-2.22c.42 0 .76-.33.76-.74a.75.75 0 0 0-.76-.75c-1.15 0-2.2.44-2.98 1.14v-2.2a.75.75 0 0 0-.76-.73.75.75 0 0 0-.76.74v2.24a4.47 4.47 0 0 0-3.04-1.19.75.75 0 0 0-.76.75c0 .4.34.74.76.74a2.9 2.9 0 0 1 2.84 2.22 4.47 4.47 0 0 0-2.84-1 .75.75 0 0 0-.76.74c0 .4.34.74.76.74a2.9 2.9 0 0 1 2.84 2.22 4.48 4.48 0 0 0-2.84-1 .75.75 0 0 0-.76.73c0 .41.34.75.76.75 1.5 0 2.73 1.11 2.89 2.54-5.82.74-10.27 6.65-10.27 13.8 0 2.2.55 4.26 1.31 6.11h-.1c1.89 4.6 5.79 7.78 10.36 7.78 6.4 0 11.6-6.23 11.6-13.89 0-7.44-4.96-13.52-11.13-13.85zm272.87 144.28c.17.22.97.6 1.43.6.4 0 .89-.38.89-.53v-1.27c0-.15-.47-.52-.89-.52-.46 0-1.26.3-1.43.52v1.2zm1.43 2.02c-.88 0-2.93-.68-2.93-1.95v-1.27c0-1.34 2.05-2.02 2.93-2.02 1.1 0 2.4.82 2.4 2.02v1.27c0 1.13-1.3 1.95-2.4 1.95zm13.04-3.22v1.27c.05.15.64.53 1.07.53.42 0 1.01-.38 1.06-.6v-1.2c-.05-.22-.64-.52-1.06-.52-.42 0-1.01.3-1.07.52zm1.07 3.22c-1.03 0-2.58-.75-2.58-1.95v-1.27c0-1.27 1.55-2.02 2.58-2.02 1.02 0 2.57.75 2.57 2.02v1.27c0 1.2-1.55 1.95-2.57 1.95zm-6.85-7.56H405.5c-.18 0-.77.08-.77.53l.18 23.41c.02.15-.33.75 0 .75h15.85v-1.5l-.09-1.5h-4.44c-.2 0-5.64.23-7.65-3.21a.66.66 0 0 1-.09-.3c-.02-.07-.13-.82.35-1.42.22-.22.62-.52 1.32-.52v1.5H410l-.01.14c1.63 2.55 6.16 2.32 6.2 2.32h4.58v-5.76c-.1-.07-.46-.22-1.51-.22l-1.36.07a.77.77 0 0 1-.72-.45l-.76-1.5a7.88 7.88 0 0 1-.02-3.07c.9-4.78 2.57-7.77 3.63-9.27zm5.4 30.38c-2.79 0-4.1-2.47-4.66-4.27h-16.03c-1.34 0-1.47-1.27-1.52-2.02l.01-23.56c0-1.5 1.36-2.02 2.28-2.02h15.68c.82-1.13 1.66-2.32 2.87-3.3l.97 1.13c-.77.67-1.4 1.42-1.97 2.17h.73v.07l11.89-.07c.79 0 1.96.6 1.96 2.17v23.26c.01.15.02 1.05-.46 1.57-.24.3-.7.6-1.5.6h-13.26l-.14-1.5 13.26.08c.1 0 .29-.08.37-.15.07-.07.09-.22.08-.3v-.07l.14-23.5c0-.6-.31-.67-.45-.67l-13.82.08c-.67.75-2.91 3.74-3.97 9.42a7.02 7.02 0 0 0-.06 2.25l.49.97h.9c1.33 0 2.19.22 2.68.75.38.37.38.82.38.97v5.61l3.05.15c2.3 0 4.64-2.24 4.9-2.54 0 0 0-.08-.06-.15l1.26-.75c.55.82.3 1.57-.13 1.95-.5.52-3.12 2.99-6 2.99l-3.05-.15.03 3.81c0 .23-.11.23-.3.38.51 1.42 1.73 3.14 3.45 3.14v1.5zM39.86 174.15c-.54.53-1.15.98-1.82 1.35a20.11 20.11 0 0 1-6.65-4.56 20.5 20.5 0 0 1-4.54-6.66 8.09 8.09 0 0 1 7.19-4.19c2.2 0 4.26.82 5.82 2.4a8.3 8.3 0 0 1 0 11.66zm1.05-12.71a9.83 9.83 0 0 0-6.87-2.84 9.83 9.83 0 0 0-8.68 5.3l-.15.3.12.38A22.63 22.63 0 0 0 37.8 177l.32.15.3-.15a9.7 9.7 0 0 0 2.5-15.56zm-14.28 14.29a6.07 6.07 0 0 1-1.67-5.39c.78 1.5 1.8 2.84 3.02 4.04a17.17 17.17 0 0 0 4 3 5.92 5.92 0 0 1-5.35-1.65zM15.08 190.6l-3.17-3.14 12.17-12.2 1.5 1.5 1.67 1.72-12.17 12.12zm13.96-17.28a15.86 15.86 0 0 1-3.5-5.23l-.61-1.58-.75 1.5a7.57 7.57 0 0 0-.5 5.54l-13.9 13.92 2.12 2.1-4.75 4.7 1.06 1.13 4.75-4.79 2.11 2.1 13.99-13.92a7.53 7.53 0 0 0 5.24-.6l1.49-.74-1.55-.6a15.57 15.57 0 0 1-5.21-3.52zm338.2 154.56c-2.96 0-5.37-2.18-5.37-4.85 0-2.67 2.41-4.84 5.37-4.84s5.37 2.17 5.37 4.84-2.4 4.85-5.37 4.85zm-20.05 3.53c-2.97 0-5.37-2.17-5.37-4.85 0-2.67 2.4-4.84 5.37-4.84 2.96 0 5.37 2.17 5.37 4.84 0 2.68-2.41 4.85-5.37 4.85zM374.05 297l-21.56 2.82v22.79a7 7 0 0 0-5.3-2.38c-3.75 0-6.8 2.85-6.8 6.34 0 3.5 3.05 6.35 6.8 6.35s6.8-2.84 6.8-6.35c0-.56-.09-1.12-.24-1.64h.17v-23.8l18.7-2.44v20.47a7 7 0 0 0-5.38-2.46c-3.75 0-6.8 2.84-6.8 6.34s3.05 6.35 6.8 6.35 6.8-2.85 6.8-6.35c0-.36-.03-.7-.1-1.05h.1V297zM201.98 79.3a.75.75 0 0 0-.75.75v15.7a.75.75 0 0 0 1.5 0v-15.7a.75.75 0 0 0-.75-.75zm0-6.74c.42 0 .75-.33.75-.74V59.85a.75.75 0 0 0-1.5 0v11.97c0 .4.34.74.75.74zm2.62 4.5h-5.24a1.12 1.12 0 1 1 0-2.25h5.24a1.12 1.12 0 1 1 0 2.24zm0-3.75h-5.24a2.62 2.62 0 0 0 0 5.24h5.24a2.62 2.62 0 0 0 0-5.24zm-16.09 17.2a.75.75 0 0 0-.74.76v4.49a.75.75 0 0 0 1.5 0v-4.5a.75.75 0 0 0-.76-.74zm0-6.72c.42 0 .75-.34.75-.75v-23.2a.75.75 0 0 0-1.5 0v23.2c0 .4.34.75.75.75zm2.62 4.48h-5.24a1.12 1.12 0 1 1 0-2.24h5.24a1.12 1.12 0 1 1 0 2.24zm0-3.74h-5.24a2.62 2.62 0 0 0 0 5.24h5.24a2.62 2.62 0 0 0 0-5.24zm-16.07-19.45c.4 0 .74-.33.74-.74v-4.5a.75.75 0 0 0-1.5 0v4.5c0 .4.34.74.76.74zm0 6.74a.75.75 0 0 0-.75.74v23.2a.75.75 0 0 0 1.5 0v-23.2a.75.75 0 0 0-.75-.74zm2.62-2.25h-5.24a1.12 1.12 0 1 1 0-2.24h5.24a1.12 1.12 0 1 1 0 2.24zm0-3.74h-5.24a2.62 2.62 0 0 0 0 5.24h5.24a2.62 2.62 0 0 0 0-5.24zM464.94 217.7v1.5c4.74 0 8.6 3.88 8.6 8.6h1.5c0-5.54-4.53-10.1-10.1-10.1zm0-3.75h-.4l.04 1.5h.36c6.8 0 12.34 5.54 12.34 12.34h1.5c0-7.63-6.21-13.84-13.84-13.84zm0 19.45a5.63 5.63 0 0 1-5.61-5.6 5.63 5.63 0 0 1 5.6-5.62c3.1 0 5.62 2.55 5.62 5.61a5.63 5.63 0 0 1-5.61 5.61zm0-12.71a7.13 7.13 0 0 0-7.1 7.1c0 3.9 3.18 7.11 7.1 7.11 3.92 0 7.1-3.22 7.1-7.1 0-3.9-3.18-7.11-7.1-7.11zm0 23.19a16.08 16.08 0 1 1 0-32.16 16.08 16.08 0 0 1 0 32.16zm0-33.67a17.58 17.58 0 1 0 0 35.16 17.58 17.58 0 0 0 0-35.16zM42.27 44.89c-1.12 0-2.21-.15-3.27-.38l2.02-8.75c.4.07.82.15 1.25.15a6.36 6.36 0 0 0 6.22-7.63l8.53-2.84a15.36 15.36 0 0 1-14.75 19.45zm-14.6-10.7l8.58-2.62c.56 1.65 1.78 3 3.34 3.74l-2.03 8.83a15.35 15.35 0 0 1-9.9-9.95zm14.6-19.98c1.12 0 2.2.15 3.26.38l-2.02 8.75c-.4-.07-.82-.15-1.24-.15a6.36 6.36 0 0 0-6.33 6.88l-8.66 2.7a15.35 15.35 0 0 1 14.99-18.55zM37.4 29.55a4.86 4.86 0 1 1 9.73 0 4.86 4.86 0 0 1-9.73 0zm19.15-5.54L48 26.86a6.28 6.28 0 0 0-3.07-3.07l2.04-8.83a15.44 15.44 0 0 1 9.57 9.05zm-14.28-11.3a16.85 16.85 0 0 0-16.83 16.84c0 9.28 7.55 16.83 16.83 16.83 9.28 0 16.83-7.55 16.83-16.83 0-9.28-7.55-16.83-16.83-16.83zm344.49 84.54c0 1.24-1 2.25-2.24 2.25V66.58c1.24 0 2.24 1 2.24 2.24v28.43zm-18.7 2.25v-2.25h1.5a.75.75 0 0 0 0-1.5h-1.5v-1.49h1.5a.75.75 0 0 0 0-1.5h-1.5v-1.5h1.5a.75.75 0 0 0 0-1.49h-1.5v-1.5h1.5a.75.75 0 0 0 0-1.5h-1.5v-1.49h1.5a.75.75 0 0 0 0-1.5h-1.5V82.3h1.5a.75.75 0 0 0 0-1.5h-1.5v-1.5h1.5a.75.75 0 0 0 0-1.49h-1.5v-1.5h1.5a.75.75 0 0 0 0-1.5h-1.5v-1.49h1.5a.75.75 0 0 0 0-1.5h-1.5v-1.49h1.5a.75.75 0 0 0 0-1.5h-1.5v-2.24h14.96V99.5h-14.96zm-11.22 0v-5.76a3.22 3.22 0 0 0-3.22-3.22h-5.76v-21.7a2.25 2.25 0 0 1 2.25-2.24h16.45v2.24h-1.5a.75.75 0 0 0 0 1.5h1.5v1.5h-1.5a.75.75 0 0 0 0 1.5h1.5v1.49h-1.5a.75.75 0 0 0 0 1.5h1.5v1.5h-1.5a.75.75 0 0 0 0 1.49h1.5v1.5h-1.5a.75.75 0 0 0 0 1.49h1.5v1.5h-1.5a.75.75 0 0 0 0 1.5h1.5v1.49h-1.5a.75.75 0 0 0 0 1.5h1.5v1.5h-1.5a.75.75 0 0 0 0 1.49h1.5v1.5h-1.5a.75.75 0 0 0 0 1.49h1.5v1.5h-1.5a.75.75 0 0 0 0 1.5h1.5v2.24h-9.72zm-1.5-2.12l-5.36-5.36h3.75c.95 0 1.61.77 1.61 1.72v3.64zm29.18-32.3H350.1a3.74 3.74 0 0 0-3.74 3.74v21.7l10.47 10.47h27.68a3.74 3.74 0 0 0 3.74-3.74V68.82a3.74 3.74 0 0 0-3.74-3.74zm-12.42 83.84l-1.06-1.06a.74.74 0 1 0-1.05 1.06l1.05 1.05-4.74 4.74-1.05-1.06a.74.74 0 1 0-1.05 1.06l1.05 1.05-5.27 5.26-1.05-1.06a.76.76 0 0 0-1.05 0 .75.75 0 0 0 0 1.06l1.05 1.05-4.74 4.74-1.05-1.06a.74.74 0 1 0-1.05 1.06l1.05 1.05-3.16 3.16-2.86-2.86a17.96 17.96 0 0 1-3.65-20.1c.78-1.7 1.84-3.25 3.12-4.64l.76.76a.75.75 0 0 0 1.05 0 .75.75 0 0 0 0-1.06l-.77-.76a17.74 17.74 0 0 1 12.09-4.72c4.78 0 9.28 1.87 12.68 5.26l2.86 2.86-3.16 3.16zm4.74-3.69l-3.4-3.39a19.29 19.29 0 0 0-13.72-5.69 19.21 19.21 0 0 0-13.68 5.67 19.12 19.12 0 0 0-3.92 5.63 19.45 19.45 0 0 0 3.94 21.76l3.4 3.39a.73.73 0 0 0 1.05 0l10-10 16.33-16.31a.76.76 0 0 0 .22-.53c0-.2-.08-.4-.22-.53zm-26.44 18c-4.1-4.69-3.93-12.35.51-16.78a12.05 12.05 0 0 1 8.62-3.47c3.07 0 6 1.07 8.17 2.96l-17.3 17.29zm9.13-21.74c-3.72 0-7.16 1.39-9.67 3.9-5.18 5.18-5.18 14.26 0 19.44a.76.76 0 0 0 1.05 0l18.4-18.38a.75.75 0 0 0 0-1.06 13.86 13.86 0 0 0-9.78-3.9zm-5.68 107.62a5.24 5.24 0 1 1-10.49 0 5.24 5.24 0 0 1 10.49 0zm-11.97 0a6.74 6.74 0 0 0 10.93 5.26l4.25 4.25 1.06-1.06-4.25-4.25a6.74 6.74 0 1 0-11.99-4.2zm-14.22 1.5h13.47v-1.5h-13.47a5.24 5.24 0 0 1 0-10.47h22.45v-1.5h-22.45a6.74 6.74 0 0 0 0 13.47zm0 13.47a5.24 5.24 0 0 1 0-10.48h13.47v-1.5h-13.47a6.74 6.74 0 0 0 0 13.47h30.68v-1.5h-30.68zm-16.1-218.56l-4.73-4.72 1.74-7.71 5.35 5.35 5.34 5.34-7.7 1.74zm-5.12-3.01l3.4 3.4-4.39.99 1-4.4zm20.21-28.36l2.19 8.32-14.4 14.39-5.25-5.25 17.46-17.46zm-5.9 29l-.24-.22-5.02-5.02 14.4-14.4 8.31 2.19-17.46 17.46zm19.41-18.36a.7.7 0 0 0-.33-.18v-.02l-9.56-2.51-2.51-9.56h-.01a.73.73 0 0 0-.18-.33.74.74 0 0 0-1.05 0l-18.9 18.9a.72.72 0 0 0-.15.22l-.02.06c-.01.02-.03.05-.03.08l-3.68 16.27a.74.74 0 0 0 .9.9l16.27-3.69.07-.02.07-.03a.64.64 0 0 0 .21-.14l18.9-18.9a.74.74 0 0 0 0-1.05zm74.74 254.28c-.7 0-1.25-.56-1.25-1.27 0-.7.56-1.26 1.24-1.26.7 0 1.25.57 1.25 1.26 0 .7-.56 1.27-1.25 1.27zm0-4.03a2.75 2.75 0 0 0-2.73 2.76 2.75 2.75 0 0 0 2.72 2.77 2.75 2.75 0 0 0 2.73-2.77 2.75 2.75 0 0 0-2.73-2.76zm15.62 24.5a16.77 16.77 0 0 1-23.1-.86 17.2 17.2 0 0 1-4.96-12.16c0-4.6 1.76-8.91 4.97-12.16a16.73 16.73 0 0 1 12-5.04c4.37 0 8.48 1.66 11.64 4.68l-12.88 13.05 12.33 12.5zm2.64-25.54l-.68-.7a18.2 18.2 0 0 0-13.05-5.48 18.2 18.2 0 0 0-13.05 5.48 18.7 18.7 0 0 0-5.4 13.22c0 5 1.92 9.7 5.4 13.23a18.2 18.2 0 0 0 13.05 5.47c4.73 0 9.23-1.8 12.67-5.1l.55-.53-12.37-12.54L433.16 274zM238.27 21.29a1.87 1.87 0 1 0 0 3.74 1.87 1.87 0 0 0 0-3.74zm-9.73 0a1.87 1.87 0 1 0 0 3.74 1.87 1.87 0 0 0 0-3.74zm16.09 21.67l-1.86-1.85-2.49 2.48-2.48-2.48-2.48 2.48-2.49-2.48-2.48 2.48-2.49-2.48-2.48 2.48-2.48-2.48-1.46 1.46V22.73c0-6.35 5.17-11.5 11.53-11.5h.12c6.36 0 11.54 5.15 11.54 11.5v20.23zM233.09 9.73h-.12a13.03 13.03 0 0 0-13.03 13v23.44l2.96-2.95 2.48 2.48 2.48-2.48 2.49 2.48 2.48-2.48 2.49 2.48 2.48-2.48 2.48 2.48 2.49-2.48 2.06 2.06 1.19 1.1.1-1.66V22.73c0-7.18-5.84-13-13.03-13zM57.6 365.4l-6.73-3.05v-9.52l6.73-3.06v15.64zm-8.23-1.68c0 2.4-1.94 4.34-4.33 4.34h-19a4.34 4.34 0 0 1-4.35-4.34V352.2c0-2.4 1.95-4.34 4.34-4.34h19c2.4 0 4.34 1.95 4.34 4.34v11.52zM24.7 342.25a4.12 4.12 0 1 1 8.24.01 4.12 4.12 0 0 1-8.24 0zm11.24 4.12H32.6a5.63 5.63 0 0 0 1.43-2.08c.5.8 1.14 1.5 1.9 2.08zm4.47-11.97a6 6 0 1 1-.02 11.98 6 6 0 0 1 .02-11.98zm18.7 13.05l-8.32 3.78a5.84 5.84 0 0 0-5.74-4.86h-.17a7.47 7.47 0 1 0-11.75-7.7 5.6 5.6 0 1 0-8.03 7.78 5.84 5.84 0 0 0-4.9 5.75v11.52a5.84 5.84 0 0 0 5.84 5.84h19a5.83 5.83 0 0 0 5.83-5.58l8.24 3.74v-20.27zm135.61-36.03l-8.6 8.6a.75.75 0 0 0 .53 1.29c.19 0 .38-.08.53-.22l8.6-8.6c.3-.3.3-.78 0-1.07a.75.75 0 0 0-1.06 0zm-7.92 4.06l3.37-3.37c.3-.3.3-.77 0-1.06a.75.75 0 0 0-1.06 0l-3.36 3.37a.75.75 0 0 0 .52 1.27c.2 0 .39-.07.53-.21zm-.9 18.92a1.12 1.12 0 1 1 0-2.25 1.12 1.12 0 0 1 0 2.25zm0-3.74a2.62 2.62 0 1 0 0 5.24 2.62 2.62 0 0 0 0-5.24zm23.57 2.24H197.5a.75.75 0 0 0 0 1.5h11.97a.75.75 0 0 0 0-1.5zm-.75-5.98c0 .4-.34.74-.75.74h-22.44a.75.75 0 0 1-.75-.74v-16.46c0-.41.33-.75.75-.75h22.44c.41 0 .75.34.75.75v16.46zm-.75-18.7h-22.44c-1.24 0-2.25 1-2.25 2.24v16.46c0 1.23 1 2.24 2.25 2.24h22.44a2.25 2.25 0 0 0 2.24-2.24v-16.46c0-1.24-1-2.25-2.24-2.25zm3.74 29.17c0 .41-.34.75-.75.75h-28.43a.75.75 0 0 1-.74-.75v-29.92c0-.42.33-.75.74-.75h28.43c.41 0 .75.33.75.75v29.92zm-2.24 4.49c0 .4-.34.75-.75.75h-23.94a.75.75 0 0 1-.75-.75v-2.25h25.44v2.25zm1.5-36.66h-28.44a2.25 2.25 0 0 0-2.24 2.25v29.92c0 1.23 1 2.24 2.24 2.24v2.25a2.25 2.25 0 0 0 2.25 2.24h23.94a2.25 2.25 0 0 0 2.24-2.24v-2.25a2.25 2.25 0 0 0 2.25-2.24v-29.92a2.25 2.25 0 0 0-2.25-2.25zm-29.92-77.05a8.24 8.24 0 1 1 0-16.48 8.24 8.24 0 0 1 0 16.48zm9.73-8.23a9.74 9.74 0 0 0-19.46 0 9.74 9.74 0 0 0 19.46 0zm-16.52 27.68l3.56-4.93 6.07 4.52 2.64-4.1 10.42 2.94.9 3.81h-23.22v-2.24h-.37zm-1.14 0v2.24h-9.62l1.7-7.13 8.47 4.89h-.55zm-6.96-8.98h14.13v4.02l-2.8-2.08-3.83 5.3-8.1-4.68.6-2.56zm15.64 4.49v-4.49h5.8l-4.1 6.4-2.57-1.91h.87zm13.38-4.49l1.37 5.75-9.18-2.6 2.03-3.15h5.78zm1.2-1.5H181.8v-7.48h-1.5v7.49h-15.34l-3.37 14.2h38.17l-3.38-14.2zm102.25-38.93l-.02.03a.8.8 0 0 0-.63-.33.8.8 0 0 0-.8.8c0 .3.17.56.42.7l-.03.03a18.42 18.42 0 0 1 1.52 10.05h1.5a20 20 0 0 0-1.96-11.28zm-18.1-9.7a18.65 18.65 0 0 1 9.7 2.67c.13.19.35.32.6.32a.75.75 0 1 0 .57-1.26l.04-.02-.3-.18-.01-.01a20.18 20.18 0 0 0-30.66 19.41v.03a.75.75 0 0 0 1.5.02h.01a18.7 18.7 0 0 1 18.55-20.98zm6.26 18.04a.85.85 0 0 0-.13.1c-.09.1-.15.2-.19.32a2.86 2.86 0 0 1-2.39 1.25c-.78 0-1.52-.3-2.08-.86a2.9 2.9 0 0 1 .42-4.5c.1-.03.19-.09.27-.17l10.58-6.54-6.48 10.4zm9.54-13.52a.72.72 0 0 0-.62-.2.72.72 0 0 0-.54.33l-.07.1-13.34 8.26-.07.05a4.38 4.38 0 0 0-.74 6.84 4.41 4.41 0 0 0 6.76-.6.7.7 0 0 0 .17-.2l8.28-13.28.11-.07a.74.74 0 0 0 .13-1.16l-.07-.07zM40.9 252.93a2.22 2.22 0 0 1 3.17 0 2.23 2.23 0 0 1 0 3.17 2.3 2.3 0 0 1-3.17 0 2.24 2.24 0 0 1 0-3.17zm-10 16.17l1.63-3.57 7.89-7.9a3.7 3.7 0 0 0 4.7-.47 3.72 3.72 0 0 0-2.64-6.38 3.73 3.73 0 0 0-3.12 5.8l-8.08 8.08-.16.34-.02-.07-3.3 1.3 13.52-23.46 3.23 3.22 9.67 9.69L30.9 269.1zm18.37-30.02l8.64 8.64-3.9 5.63-10.36-10.37 5.62-3.9zm10.58 8.47l-10.4-10.4-6.88 4.75-1.57-1.57-15.56 27.03.64.37.28.7 3.91-1.56-1.7 3.73.69.31.37.65L56.66 256l-1.57-1.57 4.76-6.88zm415.94 118.27v-5.99h4.48l-4.48 5.99zm-24.7 1.5l5.62-7.49h17.58v7.48h-23.2zm4.5-31.43v5.99h-4.5l4.5-5.99zm19.07 5.99h-17.58v-7.48h23.2l-5.62 7.48zm1.13 1l5.23-6.99v22.45h-5.23v-15.47zm-18.7 15.46h17.2v-14.97h-17.2v14.97zm-6.74-14.97h5.24v15.47l-5.24 6.98v-22.45zm32.17-9.72a.76.76 0 0 0-.08-.34.75.75 0 0 0-.67-.4h-25.43a.75.75 0 0 0-.6.29l-6.51 8.68h-.38v26.93h26.94v-.5l6.58-8.78c.1-.13.14-.29.14-.45v-25.43zM404.41 39.1l8.73-8.73a.7.7 0 1 0-.99-1l-8.72 8.74a.7.7 0 0 0 .98.98zm8.1-4.49l-3.85 3.85a.7.7 0 0 0 0 .99.7.7 0 0 0 .99 0l3.84-3.85a.7.7 0 0 0-.99-.99zm-11.53 5.79h13.46V27.68h-13.46V40.4zm-1.5 1.5h16.46V26.17h-16.46V41.9zm20.95-1.5h13.46V13.47h-13.46V40.4zm-1.5 1.5h16.46V11.96h-16.46v29.92zm-21.7 4.48h40.4v-1.5h-40.4v1.5zm-101.09 57.93l11.33-8.37v19.7l-11.33-11.33zm-10.54.9l4.66 3.45 4.66-3.45 11.49 11.5h-32.3l11.49-11.5zm-1.22-.9l-11.33 11.34V95.94l11.33 8.37zm5.88 2.49L274.31 95h31.9l-15.95 11.8zm16.46-13.29H273.8a2.25 2.25 0 0 0-2.24 2.25v20.2c0 1.24 1 2.24 2.24 2.24h32.92c1.23 0 2.24-1 2.24-2.25v-20.2c0-1.23-1-2.24-2.24-2.24zM122.69 291.89a1.5 1.5 0 1 1 0 3.01 1.5 1.5 0 0 1-1.5-1.5c0-.84.67-1.51 1.5-1.51zm0 4.53a3 3 0 0 0 2.99-3.03 3 3 0 0 0-3-3.01 3 3 0 0 0-2.99 3.01 3 3 0 0 0 3 3.03zm-8.23-4.53a1.5 1.5 0 1 1 0 3.01 1.5 1.5 0 0 1-1.5-1.5c0-.84.68-1.51 1.5-1.51zm0 4.53a3 3 0 0 0 2.99-3.03 3 3 0 0 0-3-3.01 3 3 0 0 0-2.98 3.01 3 3 0 0 0 2.99 3.03zm-8.23-1.51a1.5 1.5 0 0 1-1.5-1.52c0-.83.68-1.5 1.5-1.5s1.5.67 1.5 1.5a1.5 1.5 0 0 1-1.5 1.52zm0-4.53a3 3 0 0 0-3 3.01 3 3 0 0 0 3 3.03 3 3 0 0 0 3-3.03 3 3 0 0 0-3-3.01zm2.24-13.59v1.52h26.93v24.67h-2.24v1.5h3.74V276.8h-28.43zm-9.72 4.53h31.42v25.4h-12.72l-3 5.24-2.98-5.23H98.75v-25.41zm-1.5 26.9h13.47l3.74 6.73 3.74-6.73h13.46v-28.4h-34.4v28.4zm283.53 87.52a1.5 1.5 0 1 1 0-3 1.5 1.5 0 0 1 0 3zm0-4.49a3 3 0 1 0 0 5.99 3 3 0 0 0 0-5.99zm-8.23 4.49a1.5 1.5 0 1 1 0-3 1.5 1.5 0 0 1 0 3zm0-4.49a3 3 0 1 0 0 5.99 3 3 0 0 0 0-5.99zm-8.23 4.49a1.5 1.5 0 1 1 0-3 1.5 1.5 0 0 1 0 3zm0-4.49a3 3 0 1 0 0 5.99 3 3 0 0 0 0-5.99zm16.46-3.74a1.5 1.5 0 1 1 0-3 1.5 1.5 0 0 1 0 3zm0-4.49a3 3 0 1 0 0 6 3 3 0 0 0 0-6zm-8.23 4.5a1.5 1.5 0 1 1 0-3 1.5 1.5 0 0 1 0 3zm0-4.5a3 3 0 1 0 0 6 3 3 0 0 0 0-6zm-8.23 4.5a1.5 1.5 0 1 1 0-3 1.5 1.5 0 0 1 0 3zm0-4.5a3 3 0 1 0 0 5.99 3 3 0 0 0 0-5.99zm16.46-3.74a1.5 1.5 0 1 1 0-3 1.5 1.5 0 0 1 0 3zm0-4.49a3 3 0 1 0 0 6 3 3 0 0 0 0-6zm-8.23 4.5a1.5 1.5 0 1 1 0-3 1.5 1.5 0 0 1 0 3zm0-4.5a3 3 0 1 0 0 6 3 3 0 0 0 0-6zm-8.23 4.5a1.5 1.5 0 1 1 0-3 1.5 1.5 0 0 1 0 3zm0-4.5a3 3 0 1 0 0 6 3 3 0 0 0 0-6zm-1.5-3.74h19.45v-3.74h-19.45v3.74zm-1.5 1.5h22.45v-6.73h-22.44v6.73zm23.95 22.44a3.74 3.74 0 0 1-3.74 3.74h-17.96a3.74 3.74 0 0 1-3.74-3.74v-28.43a3.74 3.74 0 0 1 3.74-3.74h17.96a3.74 3.74 0 0 1 3.74 3.74V395zm-3.74-33.66h-17.96a5.24 5.24 0 0 0-5.23 5.23V395a5.24 5.24 0 0 0 5.23 5.24h17.96a5.24 5.24 0 0 0 5.23-5.24v-28.43a5.24 5.24 0 0 0-5.23-5.23zM121.2 228.92c0 .4-.35.74-.76.74h-8.23a.75.75 0 0 1-.74-.74v-4.5c0-.4.33-.74.74-.74h8.23c.41 0 .75.34.75.75v4.49zm-14.97-5.24c.41 0 .75.34.75.75v4.49c0 .4-.34.74-.75.74H98a.75.75 0 0 1-.75-.74v-4.5c0-.4.34-.74.75-.74h8.23zm-14.21 0c.4 0 .74.34.74.75v4.49c0 .4-.33.74-.74.74h-8.23a.75.75 0 0 1-.75-.74v-4.5c0-.4.33-.74.75-.74h8.23zm28.42-1.5h-2.99v-4.49H86.78v4.5h-3a2.25 2.25 0 0 0-2.24 2.24v4.49c0 1.24 1 2.24 2.25 2.24h8.23c1.23 0 2.24-1 2.24-2.24v-4.5c0-1.23-1-2.24-2.24-2.24h-3.75v-2.99H101v3h-3a2.25 2.25 0 0 0-2.24 2.24v4.49c0 1.24 1 2.24 2.24 2.24h8.23c1.24 0 2.24-1 2.24-2.24v-4.5c0-1.23-1-2.24-2.24-2.24h-3.74v-2.99h13.46v3h-3.74a2.25 2.25 0 0 0-2.24 2.24v4.49c0 1.24 1 2.24 2.24 2.24h8.23c1.24 0 2.25-1 2.25-2.24v-4.5a2.25 2.25 0 0 0-2.25-2.24zm-23.19-17.2c0-.42.34-.75.75-.75h8.23c.41 0 .75.33.75.75v4.49c0 .4-.34.74-.75.74H98a.75.75 0 0 1-.75-.74v-4.5zm.75 6.73h3v3.74h1.49v-3.74h3.74c1.24 0 2.24-1 2.24-2.24v-4.5c0-1.23-1-2.24-2.24-2.24H98a2.25 2.25 0 0 0-2.24 2.25v4.49c0 1.24 1 2.24 2.24 2.24zm162.34 74.81a1.5 1.5 0 1 1 0-3 1.5 1.5 0 0 1 0 3zm0-4.49a3 3 0 1 0 0 5.99 3 3 0 0 0 0-5.99zm8.97-3h5.24v-1.49h-5.24v1.5zm0-4.48h5.24v-1.5h-5.24v1.5zm0-4.49h5.24v-1.5h-5.24v1.5zm-11.97 8.98h5.99v-1.5h-5.99v1.5zm0-4.49h5.99v-1.5h-5.99v1.5zm0-4.49h5.99v-1.5h-5.99v1.5zm-11.22 8.98h5.24v-1.5h-5.24v1.5zm0-4.49h5.24v-1.5h-5.24v1.5zm0-4.49h5.24v-1.5h-5.24v1.5zm-3.74 21.7h9.73v-1.5h-8.23v-26.18h8.23v-1.5h-9.73v29.18zm26.18-29.18v1.5h8.23v26.18h-8.23v1.5h9.73v-29.18h-9.73zm-13.46 28.43h10.47v-27.68H255.1V291zm-1.5 1.5h13.47v-30.68H253.6v30.67zM85.28 80.05H101v-1.5H85.3v1.5zm0-3.74H101v-1.5H85.3v1.5zm0-3.75h8.23v-1.5h-8.23v1.5zm23.2-6.73H80.04a2.25 2.25 0 0 1 0-4.49h28.42a2.25 2.25 0 0 1 0 4.5zm-2.25 15.71c0 1.24-1 2.25-2.25 2.25H84.53a2.25 2.25 0 0 1-2.24-2.25V67.33h23.94v14.21zm2.24-21.7H80.05a3.74 3.74 0 0 0 0 7.49h.74v14.21a3.74 3.74 0 0 0 3.74 3.74h8.98v2.94l-4.01 4.01 1.06 1.06 2.95-2.95v3.17h1.5v-3.17l2.95 2.95 1.06-1.06-4.01-4v-2.95h8.97a3.74 3.74 0 0 0 3.75-3.74V67.33h.74a3.74 3.74 0 0 0 0-7.48zm24.67 307.47h23.88a.75.75 0 0 0 0-1.5h-22.39v-4.48h-10.45v14.21a.75.75 0 0 0 1.5 0v-12.72h7.46v4.5zm24.41 23.2h-29.04l2.37-20.2h29.04l-2.37 20.2zm-28-21.7L126.83 392h32.05l2.72-23.2h-32.05zM203.5 139.9a1.5 1.5 0 1 1 0 2.99 1.5 1.5 0 0 1 0-3zm-4.49 0a1.5 1.5 0 1 1 0 2.99 1.5 1.5 0 0 1 0-3zm-4.49 0a1.5 1.5 0 1 1 0 2.99 1.5 1.5 0 0 1 0-3zm0 20.94H202v-10.47h-7.48v10.47zm-1.5 1.5h10.48v-13.47h-10.47v13.47zm14.22-1.5h7.48v-10.47h-7.48v10.47zm-1.5 1.5h10.48v-13.47h-10.48v13.47zm14.22-1.5h7.48v-10.47h-7.48v10.47zm-1.5 1.5h10.47v-13.47h-10.47v13.47zm12.72-16.46h-40.4v17.2c0 1.66.6 2.25 2.25 2.25h35.9c1.66.03 2.27-.41 2.25-2.25-.11-.87 0-17.2 0-17.2zm0-5.24c0-1.65-.6-2.24-2.25-2.24h-35.9c-1.66 0-2.25.59-2.25 2.24v3.74h40.4v-3.74zm-1.5 26.18h-37.4a3 3 0 0 1-3-2.99V139.9a3 3 0 0 1 3-2.99h37.4a3 3 0 0 1 3 3v23.93a3 3 0 0 1-3 3zm-130.86-8.97h35.81v-1.5H98.82v1.5zm0 2.99h35.81v-1.5H98.82v1.5zm0 3h35.81v-1.5H98.82v1.5zm5.44-35.17h24.78l5.35 26.18H98.9l5.35-26.18zm31.72 26.51l-5.6-27.4a.74.74 0 0 0-.74-.6h-25.99a.74.74 0 0 0-.73.6l-5.66 27.67c-.03.15 0 .3.06.44v8.69c0 .41.34.75.75.75h37.3c.42 0 .75-.34.75-.75v-8.98c0-.15-.06-.3-.14-.42zm-5.08-7.06h-28.35a.75.75 0 0 0 0 1.5h28.35a.75.75 0 0 0 0-1.5zm-26.86-3.74h25.37a.75.75 0 0 0 0-1.5h-25.37a.75.75 0 0 0 0 1.5zm1.5-5.23h22.38a.75.75 0 0 0 0-1.5h-22.39a.75.75 0 0 0 0 1.5zm1.48-5.24h19.4a.75.75 0 0 0 0-1.5h-19.4a.75.75 0 0 0 0 1.5zm367.27-16.46h1.5v-1.5h-1.5v1.5zm-1.5 1.5h4.5v-4.5h-4.5v4.5zm-5.98-1.5h1.5v-1.5h-1.5v1.5zm-1.5 1.5h4.5v-4.5h-4.5v4.5zm-5.98-1.5h1.5v-1.5h-1.5v1.5zm-1.5 1.5h4.5v-4.5h-4.5v4.5zm-5.98-1.5h1.5v-1.5h-1.5v1.5zm-1.5 1.5h4.49v-4.5h-4.49v4.5zm23.94-8.98h1.5v-1.5h-1.5v1.5zm-1.5 1.5h4.5v-4.5h-4.5v4.5zm-5.98-1.5h1.5v-1.5h-1.5v1.5zm-1.5 1.5h4.5v-4.5h-4.5v4.5zm-5.98-1.5h1.5v-1.5h-1.5v1.5zm-1.5 1.5h4.5v-4.5h-4.5v4.5zm-5.98-1.5h1.5v-1.5h-1.5v1.5zm-1.5 1.5h4.49v-4.5h-4.49v4.5zm23.94-8.98h1.5v-1.5h-1.5v1.5zm-1.5 1.5h4.5v-4.5h-4.5v4.5zm-5.98-1.5h1.5v-1.5h-1.5v1.5zm-1.5 1.5h4.5v-4.5h-4.5v4.5zm-5.98-1.5h1.5v-1.5h-1.5v1.5zm-1.5 1.5h4.5v-4.5h-4.5v4.5zm-5.98-1.5h1.5v-1.5h-1.5v1.5zm-1.5 1.5h4.49v-4.5h-4.49v4.5zm30.67 17.95c0 .41-.33.75-.75.75h-32.16a.75.75 0 0 1-.75-.75V94.26c0-.41.33-.75.75-.75h6.73v2.25a.75.75 0 0 0 1.5 0V93.5h6.73v2.25a.75.75 0 0 0 1.5 0V93.5h6.73v2.25a.75.75 0 0 0 1.5 0V93.5h7.47c.42 0 .75.34.75.75v27.68zm-.75-29.92h-7.48v-3a.75.75 0 0 0-1.5 0v3h-6.73v-3a.75.75 0 0 0-1.5 0v3h-6.72v-3a.75.75 0 0 0-1.5 0v3h-6.73c-1.24 0-2.25 1-2.25 2.24v27.68a2.25 2.25 0 0 0 2.25 2.24h32.16a2.25 2.25 0 0 0 2.25-2.24V94.26c0-1.24-1-2.24-2.25-2.24z" fill="#EBEBEB"/></svg>